Point(1) = { 1.2, 1.32, 2.7, 1.0 };
Point(2) = { 0.0, 1.32, 2.7, 1.0 };
Point(3) = { 0.0, 1.32, 1.0, 1.0 };
Point(4) = { 0.0, 1.32, 0.0, 1.0 };
Point(5) = { 1.2, 1.32, 0.0, 1.0 };
Point(6) = { 1.2, 1.32, 1.0, 1.0 };
Point(7) = { 15.85, 0.0, 2.7, 1.0 };
Point(8) = { 15.85, 0.0, 1.0, 1.0 };
Point(9) = { 14.7, 0.0, 1.0, 1.0 };
Point(10) = { 14.7, 0.0, 2.3, 1.0 };
Point(11) = { 13.7, 0.0, 2.3, 1.0 };
Point(12) = { 13.7, 0.0, 1.0, 1.0 };
Point(13) = { 8.6, 0.0, 1.0, 1.0 };
Point(14) = { 8.6, 0.0, 2.3, 1.0 };
Point(15) = { 7.6, 0.0, 2.3, 1.0 };
Point(16) = { 7.6, 0.0, 1.0, 1.0 };
Point(17) = { 2.5, 0.0, 1.0, 1.0 };
Point(18) = { 2.5, 0.0, 2.3, 1.0 };
Point(19) = { 1.5, 0.0, 2.3, 1.0 };
Point(20) = { 1.5, 0.0, 1.0, 1.0 };
Point(21) = { 0.0, 0.0, 1.0, 1.0 };
Point(22) = { 0.0, 0.0, 2.7, 1.0 };
Point(23) = { 20.8, 0.0, 0.0, 1.0 };
Point(24) = { 19.8, 0.0, 0.0, 1.0 };
Point(25) = { 19.8, 0.0, 1.0, 1.0 };
Point(26) = { 19.8, 0.0, 2.3, 1.0 };
Point(27) = { 20.8, 0.0, 2.3, 1.0 };
Point(28) = { 20.8, 0.0, 1.0, 1.0 };
Point(29) = { 4.85, 1.32, 0.0, 1.0 };
Point(30) = { 5.85, 1.32, 0.0, 1.0 };
Point(31) = { 5.85, 1.32, 1.0, 1.0 };
Point(32) = { 5.85, 1.32, 2.3, 1.0 };
Point(33) = { 4.85, 1.32, 2.3, 1.0 };
Point(34) = { 4.85, 1.32, 1.0, 1.0 };
Point(35) = { 30.6, 0.0, 2.7, 1.0 };
Point(36) = { 31.8, 0.0, 2.7, 1.0 };
Point(37) = { 31.8, 0.0, 1.0, 1.0 };
Point(38) = { 31.8, 0.0, 0.0, 1.0 };
Point(39) = { 30.6, 0.0, 0.0, 1.0 };
Point(40) = { 30.6, 0.0, 1.0, 1.0 };
Point(41) = { 10.95, 1.32, 0.0, 1.0 };
Point(42) = { 11.95, 1.32, 0.0, 1.0 };
Point(43) = { 11.95, 1.32, 1.0, 1.0 };
Point(44) = { 11.95, 1.32, 2.3, 1.0 };
Point(45) = { 10.95, 1.32, 2.3, 1.0 };
Point(46) = { 10.95, 1.32, 1.0, 1.0 };
Point(47) = { 23.15, 1.32, 0.0, 1.0 };
Point(48) = { 24.15, 1.32, 0.0, 1.0 };
Point(49) = { 24.15, 1.32, 1.0, 1.0 };
Point(50) = { 24.15, 1.32, 2.3, 1.0 };
Point(51) = { 23.15, 1.32, 2.3, 1.0 };
Point(52) = { 23.15, 1.32, 1.0, 1.0 };
Point(53) = { 17.05, 1.32, 0.0, 1.0 };
Point(54) = { 18.05, 1.32, 0.0, 1.0 };
Point(55) = { 18.05, 1.32, 1.0, 1.0 };
Point(56) = { 18.05, 1.32, 2.3, 1.0 };
Point(57) = { 17.05, 1.32, 2.3, 1.0 };
Point(58) = { 17.05, 1.32, 1.0, 1.0 };
Point(59) = { 29.25, 1.32, 0.0, 1.0 };
Point(60) = { 30.25, 1.32, 0.0, 1.0 };
Point(61) = { 30.25, 1.32, 1.0, 1.0 };
Point(62) = { 30.25, 1.32, 2.3, 1.0 };
Point(63) = { 29.25, 1.32, 2.3, 1.0 };
Point(64) = { 29.25, 1.32, 1.0, 1.0 };
Point(65) = { 16.05, 1.16, 0.0, 1.0 };
Point(66) = { 15.85, 1.16, 0.0, 1.0 };
Point(67) = { 15.85, 1.32, 0.0, 1.0 };
Point(68) = { 0.0, 0.0, 0.0, 1.0 };
Point(69) = { 1.5, 0.0, 0.0, 1.0 };
Point(70) = { 2.5, 0.0, 0.0, 1.0 };
Point(71) = { 7.6, 0.0, 0.0, 1.0 };
Point(72) = { 8.6, 0.0, 0.0, 1.0 };
Point(73) = { 13.7, 0.0, 0.0, 1.0 };
Point(74) = { 14.7, 0.0, 0.0, 1.0 };
Point(75) = { 15.85, 0.0, 0.0, 1.0 };
Point(76) = { 15.85, 0.16, 0.0, 1.0 };
Point(77) = { 16.05, 0.16, 0.0, 1.0 };
Point(78) = { 16.05, 0.0, 0.0, 1.0 };
Point(79) = { 25.9, 0.0, 0.0, 1.0 };
Point(80) = { 26.9, 0.0, 0.0, 1.0 };
Point(81) = { 31.8, 1.32, 0.0, 1.0 };
Point(82) = { 16.05, 1.32, 0.0, 1.0 };
Point(83) = { 0.0, 1.16, 1.0, 1.0 };
Point(84) = { 0.0, 0.16, 1.0, 1.0 };
Point(85) = { 0.0, 0.16, 2.2, 1.0 };
Point(86) = { 0.0, 1.16, 2.2, 1.0 };
Point(87) = { 25.9, 0.0, 1.0, 1.0 };
Point(88) = { 25.9, 0.0, 2.3, 1.0 };
Point(89) = { 26.9, 0.0, 2.3, 1.0 };
Point(90) = { 26.9, 0.0, 1.0, 1.0 };
Point(91) = { 31.8, 0.66, 2.7, 1.0 };
Point(92) = { 31.8, 1.32, 2.7, 1.0 };
Point(93) = { 31.8, 1.32, 1.0, 1.0 };
Point(94) = { 16.05, 1.32, 2.7, 1.0 };
Point(95) = { 16.05, 1.32, 1.0, 1.0 };
Point(96) = { 16.05, 0.0, 2.7, 1.0 };
Point(97) = { 16.05, 1.16, 2.3, 1.0 };
Point(98) = { 16.05, 0.16, 2.3, 1.0 };
Point(99) = { 15.85, 0.16, 2.3, 1.0 };
Point(100) = { 15.85, 1.16, 2.3, 1.0 };
Point(101) = { 15.85, 1.32, 2.7, 1.0 };
Point(102) = { 15.85, 1.32, 1.0, 1.0 };
Point(103) = { 16.05, 0.0, 1.0, 1.0 };
Point(104) = { 0.0, 0.66, 1.0, 1.0 };
Line(1) = { 1, 2 };
Line(2) = { 2, 3 };
Line(3) = { 3, 4 };
Line(4) = { 4, 5 };
Line(5) = { 5, 6 };
Line(6) = { 1, 6 };
Line(7) = { 7, 8 };
Line(8) = { 8, 9 };
Line(9) = { 9, 10 };
Line(10) = { 10, 11 };
Line(11) = { 11, 12 };
Line(12) = { 12, 13 };
Line(13) = { 13, 14 };
Line(14) = { 14, 15 };
Line(15) = { 15, 16 };
Line(16) = { 16, 17 };
Line(17) = { 17, 18 };
Line(18) = { 18, 19 };
Line(19) = { 19, 20 };
Line(20) = { 20, 21 };
Line(21) = { 21, 22 };
Line(22) = { 7, 22 };
Line(23) = { 23, 24 };
Line(24) = { 24, 25 };
Line(25) = { 25, 26 };
Line(26) = { 26, 27 };
Line(27) = { 27, 28 };
Line(28) = { 23, 28 };
Line(29) = { 29, 30 };
Line(30) = { 30, 31 };
Line(31) = { 31, 32 };
Line(32) = { 32, 33 };
Line(33) = { 33, 34 };
Line(34) = { 29, 34 };
Line(35) = { 35, 36 };
Line(36) = { 36, 37 };
Line(37) = { 37, 38 };
Line(38) = { 38, 39 };
Line(39) = { 39, 40 };
Line(40) = { 35, 40 };
Line(41) = { 41, 42 };
Line(42) = { 42, 43 };
Line(43) = { 43, 44 };
Line(44) = { 44, 45 };
Line(45) = { 45, 46 };
Line(46) = { 41, 46 };
Line(47) = { 47, 48 };
Line(48) = { 48, 49 };
Line(49) = { 49, 50 };
Line(50) = { 50, 51 };
Line(51) = { 51, 52 };
Line(52) = { 47, 52 };
Line(53) = { 53, 54 };
Line(54) = { 54, 55 };
Line(55) = { 55, 56 };
Line(56) = { 56, 57 };
Line(57) = { 57, 58 };
Line(58) = { 53, 58 };
Line(59) = { 59, 60 };
Line(60) = { 60, 61 };
Line(61) = { 61, 62 };
Line(62) = { 62, 63 };
Line(63) = { 63, 64 };
Line(64) = { 59, 64 };
Line(65) = { 65, 66 };
Line(66) = { 66, 67 };
Line(67) = { 42, 67 };
Line(68) = { 30, 41 };
Line(69) = { 5, 29 };
Line(70) = { 4, 68 };
Line(71) = { 68, 69 };
Line(72) = { 69, 70 };
Line(73) = { 70, 71 };
Line(74) = { 71, 72 };
Line(75) = { 72, 73 };
Line(76) = { 73, 74 };
Line(77) = { 74, 75 };
Line(78) = { 75, 76 };
Line(79) = { 76, 77 };
Line(80) = { 77, 78 };
Line(81) = { 24, 78 };
Line(82) = { 23, 79 };
Line(83) = { 79, 80 };
Line(84) = { 39, 80 };
Line(85) = { 38, 81 };
Line(86) = { 60, 81 };
Line(87) = { 48, 59 };
Line(88) = { 47, 54 };
Line(89) = { 53, 82 };
Line(90) = { 65, 82 };
Line(91) = { 3, 83 };
Line(92) = { 2, 22 };
Line(93) = { 21, 84 };
Line(94) = { 84, 85 };
Line(95) = { 85, 86 };
Line(96) = { 83, 86 };
Line(97) = { 79, 87 };
Line(98) = { 87, 88 };
Line(99) = { 88, 89 };
Line(100) = { 89, 90 };
Line(101) = { 80, 90 };
Line(102) = { 36, 91 };
Line(103) = { 91, 92 };
Line(104) = { 92, 93 };
Line(105) = { 37, 93 };
Line(106) = { 94, 95 };
Line(107) = { 58, 95 };
Line(108) = { 52, 55 };
Line(109) = { 49, 64 };
Line(110) = { 61, 93 };
Line(111) = { 92, 94 };
Line(112) = { 35, 96 };
Line(113) = { 94, 96 };
Line(114) = { 97, 98 };
Line(115) = { 98, 99 };
Line(116) = { 99, 100 };
Line(117) = { 97, 100 };
Line(118) = { 1, 101 };
Line(119) = { 6, 34 };
Line(120) = { 31, 46 };
Line(121) = { 43, 102 };
Line(122) = { 101, 102 };
Line(123) = { 7, 101 };
Line(124) = { 25, 103 };
Line(125) = { 78, 103 };
Line(126) = { 28, 87 };
Line(127) = { 12, 73 };
Line(128) = { 13, 72 };
Line(129) = { 84, 104 };
Line(130) = { 83, 104 };
Line(131) = { 9, 74 };
Line(132) = { 16, 71 };
Line(133) = { 20, 69 };
Line(134) = { 17, 70 };
Line(135) = { 21, 68 };
Line(136) = { 82, 95 };
Line(137) = { 65, 97 };
Line(138) = { 66, 100 };
Line(139) = { 81, 93 };
Line(140) = { 40, 90 };
Line(141) = { 67, 102 };
Line(142) = { 76, 99 };
Line(143) = { 8, 75 };
Line(144) = { 77, 98 };
Line(145) = { 96, 103 };
Line Loop(1) = { 1, 2, 3, 4, 5, -6 };
Line Loop(2) = { 7, 8, 9, 10, 11, 12, 13, 14, 15, 16, 17, 18, 19, 20, 21, -22 };
Line Loop(3) = { 23, 24, 25, 26, 27, -28 };
Line Loop(4) = { 29, 30, 31, 32, 33, -34 };
Line Loop(5) = { 35, 36, 37, 38, 39, -40 };
Line Loop(6) = { 41, 42, 43, 44, 45, -46 };
Line Loop(7) = { 47, 48, 49, 50, 51, -52 };
Line Loop(8) = { 53, 54, 55, 56, 57, -58 };
Line Loop(9) = { 59, 60, 61, 62, 63, -64 };
Line Loop(10) = { 65, 66, -67, -41, -68, -29, -69, -4, 70, 71, 72, 73, 74, 75, 76, 77, 78, 79, 80, -81, -23, 82, 83, -84, -38, 85, -86, -59, -87, -47, 88, -53, 89, -90 };
Line Loop(11) = { -91, -2, 92, -21, 93, 94, 95, -96 };
Line Loop(12) = { -83, 97, 98, 99, 100, -101 };
Line Loop(13) = { -36, 102, 103, 104, -105 };
Line Loop(14) = { 106, -107, -57, -56, -55, -108, -51, -50, -49, 109, -63, -62, -61, 110, -104, 111 };
Line Loop(15) = { -111, -103, -102, -35, 112, -113 };
Line Loop(16) = { 114, 115, 116, -117 };
Line Loop(17) = { -118, 6, 119, -33, -32, -31, 120, -45, -44, -43, 121, -122 };
Line Loop(18) = { 22, -92, -1, 118, -123 };
Line Loop(19) = { -124, -24, 81, 125 };
Line Loop(20) = { -97, -82, 28, 126 };
Line Loop(21) = { 127, -75, -128, -12 };
Line Loop(22) = { 129, -130, 96, -95, -94 };
Line Loop(23) = { -76, -127, -11, -10, -9, 131 };
Line Loop(24) = { -74, -132, -15, -14, -13, 128 };
Line Loop(25) = { -72, -133, -19, -18, -17, 134 };
Line Loop(26) = { 133, -71, -135, -20 };
Line Loop(27) = { 132, -73, -134, -16 };
Line Loop(28) = { -136, -89, 58, 107 };
Line Loop(29) = { -65, 137, 117, -138 };
Line Loop(30) = { -60, 86, 139, -110 };
Line Loop(31) = { -54, -88, 52, 108 };
Line Loop(32) = { -30, 68, 46, -120 };
Line Loop(33) = { -48, 87, 64, -109 };
Line Loop(34) = { -39, 84, 101, -140 };
Line Loop(35) = { -121, -42, 67, 141 };
Line Loop(36) = { -139, -85, -37, 105 };
Line Loop(37) = { -5, 69, 34, -119 };
Line Loop(38) = { 135, -70, -3, 91, 130, -129, -93 };
Line Loop(39) = { -7, 123, 122, -141, -66, 138, -116, -142, -78, -143 };
Line Loop(40) = { -79, 142, -115, -144 };
Line Loop(41) = { 144, -114, -137, 90, 136, -106, 113, 145, -125, -80 };
Line Loop(42) = { 143, -77, -131, -8 };
Line Loop(43) = { -112, 40, 140, -100, -99, -98, -126, -27, -26, -25, 124, -145 };
Plane Surface(1) = { 1 };
Plane Surface(2) = { 2 };
Plane Surface(3) = { 3 };
Plane Surface(4) = { 4 };
Plane Surface(5) = { 5 };
Plane Surface(6) = { 6 };
Plane Surface(7) = { 7 };
Plane Surface(8) = { 8 };
Plane Surface(9) = { 9 };
Plane Surface(10) = { 10 };
Plane Surface(11) = { 11 };
Plane Surface(12) = { 12 };
Plane Surface(13) = { 13 };
Plane Surface(14) = { 14 };
Plane Surface(15) = { 15 };
Plane Surface(16) = { 16 };
Plane Surface(17) = { 17 };
Plane Surface(18) = { 18 };
Plane Surface(19) = { 19 };
Plane Surface(20) = { 20 };
Plane Surface(21) = { 21 };
Plane Surface(22) = { 22 };
Plane Surface(23) = { 23 };
Plane Surface(24) = { 24 };
Plane Surface(25) = { 25 };
Plane Surface(26) = { 26 };
Plane Surface(27) = { 27 };
Plane Surface(28) = { 28 };
Plane Surface(29) = { 29 };
Plane Surface(30) = { 30 };
Plane Surface(31) = { 31 };
Plane Surface(32) = { 32 };
Plane Surface(33) = { 33 };
Plane Surface(34) = { 34 };
Plane Surface(35) = { 35 };
Plane Surface(36) = { 36 };
Plane Surface(37) = { 37 };
Plane Surface(38) = { 38 };
Plane Surface(39) = { 39 };
Plane Surface(40) = { 40 };
Plane Surface(41) = { 41 };
Plane Surface(42) = { 42 };
Plane Surface(43) = { 43 };
Surface Loop(1) = { 1, 2, 3, 4, 5, 6, 7, 8, 9, 10, 11, 12, 13, 14, 15, 16, 17, 18, 19, 20, 21, 22, 23, 24, 25, 26, 27, 28, 29, 30, 31, 32, 33, 34, 35, 36, 37, 38, 39, 40, 41, 42, 43 };
Physical Surface("EmptyWall") = { 1, 5 };
Physical Surface("PlasterUpperWall") = { 2, 11, 13, 14, 16, 17, 29, 39, 40, 41, 43 };
Physical Surface("WoodDoors") = { 3, 4, 6, 7, 8, 9, 12, 23, 24, 25 };
Physical Surface("WoodFloor") = { 10 };
Physical Surface("PlasterCeiling") = { 15, 18 };
Physical Surface("WoodLowerWall") = { 19, 20, 21, 26, 27, 28, 30, 31, 32, 33, 34, 35, 36, 37, 38, 42 };
Physical Surface("GlassWindow") = { 22 };
Volume( 1 ) = { 1 };
Physical Volume("FFCorridor") = { 1 };
Physical Line ("default") = {1, 2, 3, 4, 5, 6, 7, 8, 9, 10, 11, 12, 13, 14, 15, 16, 17, 18, 19, 20, 21, 22, 23, 24, 25, 26, 27, 28, 29, 30, 31, 32, 33, 34, 35, 36, 37, 38, 39, 40, 41, 42, 43, 44, 45, 46, 47, 48, 49, 50, 51, 52, 53, 54, 55, 56, 57, 58, 59, 60, 61, 62, 63, 64, 65, 66, 67, 68, 69, 70, 71, 72, 73, 74, 75, 76, 77, 78, 79, 80, 81, 82, 83, 84, 85, 86, 87, 88, 89, 90, 91, 92, 93, 94, 95, 96, 97, 98, 99, 100, 101, 102, 103, 104, 105, 106, 107, 108, 109, 110, 111, 112, 113, 114, 115, 116, 117, 118, 119, 120, 121, 122, 123, 124, 125, 126, 127, 128, 129, 130, 131, 132, 133, 134, 135, 136, 137, 138, 139, 140, 141, 142, 143, 144, 145};
Mesh.Algorithm = 6;
Mesh.Algorithm3D = 1; // Delaunay3D, works for boundary layer insertion.
Mesh.Optimize = 1; // Gmsh smoother, works with boundary layers (netgen version does not).
Mesh.CharacteristicLengthFromPoints = 1;
// Recombine Surface "*";

